<?xml version="1.0" encoding="iso-8859-1"?>
<!-- Generator: Adobe Illustrator 16.0.0, SVG Export Plug-In . SVG Version: 6.00 Build 0)  -->
<!DOCTYPE svg PUBLIC "-//W3C//DTD SVG 1.1//EN" "http://www.w3.org/Graphics/SVG/1.1/DTD/svg11.dtd">
<svg version="1.1" id="Capa_1" xmlns="http://www.w3.org/2000/svg" xmlns:xlink="http://www.w3.org/1999/xlink" x="0px" y="0px"
	 width="352.261px" height="352.261px" viewBox="0 0 352.261 352.261" style="enable-background:new 0 0 352.261 352.261;fill:rgb(102, 191, 171);"
	 xml:space="preserve">
<g>
	<g>
		<path d="M121.949,264.461c-20.337,0-36.818,16.476-36.818,36.815c0,20.339,16.481,36.812,36.818,36.812
			c20.344,0,36.821-16.475,36.821-36.812S142.294,264.461,121.949,264.461z M121.949,317.281c-8.841,0-16.004-7.164-16.004-16.004
			c0-8.846,7.163-16.006,16.004-16.006c8.841,0,16.01,7.16,16.01,16.006C137.96,310.117,130.791,317.281,121.949,317.281z"/>
		<path d="M225.895,264.461c-20.338,0-36.818,16.476-36.818,36.815c0,20.339,16.48,36.812,36.818,36.812
			c20.345,0,36.82-16.475,36.82-36.812S246.238,264.461,225.895,264.461z M225.895,317.281c-8.842,0-16.004-7.164-16.004-16.004
			c0-8.846,7.162-16.006,16.004-16.006c8.843,0,16.011,7.16,16.011,16.006C241.904,310.117,234.736,317.281,225.895,317.281z"/>
		<path d="M330.262,115.375H44c-12.101,0-23.98,9.7-26.399,21.556L4.399,185.119C1.98,196.974,0,216.574,0,228.674v50.601
			c0,12.102,9.9,22,22,22h56.531c0-23.938,19.477-43.414,43.418-43.414c23.942,0,43.421,19.476,43.421,43.414h17.107
			c0-23.938,19.477-43.414,43.418-43.414c23.94,0,43.419,19.476,43.421,43.414h60.945c12.101,0,22-9.898,22-22V137.375
			C352.262,125.274,342.361,115.375,330.262,115.375z M29.992,208.201c-9.075,0-15.145-7.299-13.488-16.223l11.827-47.195
			c1.657-8.923,10.438-16.223,19.513-16.223h31.787v79.642H29.992V208.201z M92.831,208.201V128.56h79.992v79.641H92.831z
			 M186.023,208.201V128.56h79.992v79.641H186.023z M338.77,191.702c0,9.075-7.424,16.499-16.5,16.499h-43.055V128.56h43.055
			c9.076,0,16.5,7.425,16.5,16.5V191.702z"/>
		<path d="M123.006,71.139l24.262,21.257h-7.604c-2.858,0-5.197,2.338-5.197,5.196v5.162c0,2.857,2.338,5.196,5.197,5.196h79.521
			c2.858,0,5.196-2.339,5.196-5.196v-5.162c0-2.858-2.338-5.196-5.196-5.196h-7.604l24.262-21.257c3.35-2.935,3.35-7.738,0-10.673
			l-50.328-44.094c-3.35-2.935-8.832-2.935-12.181,0l-50.327,44.094C119.656,63.401,119.656,68.205,123.006,71.139z M138.353,60.509
			l34.934-30.431c3.375-2.912,8.898-2.912,12.273,0l34.934,30.431c3.375,2.912,3.375,7.675,0,10.586l-24.696,21.301h-32.747
			l-24.698-21.301C134.978,68.185,134.978,63.421,138.353,60.509z"/>
	</g>
</g>
<g>
</g>
<g>
</g>
<g>
</g>
<g>
</g>
<g>
</g>
<g>
</g>
<g>
</g>
<g>
</g>
<g>
</g>
<g>
</g>
<g>
</g>
<g>
</g>
<g>
</g>
<g>
</g>
<g>
</g>
</svg>
